<svg width="25" height="25" viewBox="0 0 25 25" fill="none" xmlns="http://www.w3.org/2000/svg">
<g clip-path="url(#clip0)">
<path d="M19.4069 7.82368L20.4994 6.28086C20.6976 6.00066 20.6315 5.61317 20.3516 5.41487L18.704 4.24817C18.424 4.05024 18.0361 4.11648 17.8378 4.39625L16.7181 5.97752C15.8917 5.59029 15.0044 5.31287 14.0745 5.16515V4.52224C14.0745 4.11056 14.4114 3.77366 14.8231 3.77366H15.2361C15.6479 3.77366 15.9849 3.4368 15.9849 3.02549V0.748741C15.9849 0.337271 15.6479 0 15.2361 0H9.76411C9.35264 0 9.01563 0.337271 9.01563 0.748741V3.02544C9.01563 3.43675 9.35264 3.7736 9.76411 3.7736H10.1775C10.589 3.7736 10.9261 4.11051 10.9261 4.52219V5.1651C9.9289 5.32366 8.98133 5.63066 8.10525 6.06192L6.99588 4.4959C6.79774 4.21576 6.41009 4.14988 6.13006 4.34782L4.48266 5.51457C4.20246 5.71292 4.13628 6.10041 4.33473 6.38076L5.45326 7.96051C3.64249 9.76772 2.52051 12.2655 2.52051 15.0205C2.52051 20.523 6.9975 25 12.5002 25C18.003 25 22.4798 20.523 22.4798 15.0205C22.4798 12.1952 21.2998 9.64095 19.4069 7.82368ZM12.5002 22.6051C8.31816 22.6051 4.91565 19.2024 4.91565 15.0204C4.91565 10.8382 8.31816 7.43572 12.5002 7.43572C16.6823 7.43572 20.0849 10.8382 20.0849 15.0204C20.0849 19.2024 16.6823 22.6051 12.5002 22.6051Z" fill="#B6C0C7"/>
<path d="M12.5 8.76624C12.4831 8.76624 12.4667 8.76775 12.4502 8.76775V14.9704H18.7525C18.7258 11.5449 15.9317 8.76624 12.5 8.76624Z" fill="#B6C0C7"/>
</g>
<defs>
<clipPath id="clip0">
<rect width="25" height="25" fill="white"/>
</clipPath>
</defs>
</svg>
