<svg width="50" height="50" xmlns="http://www.w3.org/2000/svg">

 <g>
  <title>background</title>
  <rect fill="none" id="canvas_background" height="402" width="582" y="-1" x="-1"/>
 </g>
 <g>
  <title>Layer 1</title>
  <g id="svg_1" opacity="0.75">
   <path id="svg_3" fill="#0066AE" d="m41.4062,34.3869c1.0788,0 1.9532,-0.8744 1.9532,-1.9531l0,-24.6213c0,-4.30781 -3.5047,-7.8125 -7.8125,-7.8125l-21.0938,0c-4.3078,0 -7.81248,3.50469 -7.81248,7.8125l0,34.375c0,4.3078 3.50468,7.8125 7.81248,7.8125l21.0938,0c4.3078,0 7.8125,-3.5047 7.8125,-7.8125c0,-1.0787 -0.8744,-1.9531 -1.9532,-1.9531c-1.0787,0 -1.9531,0.8744 -1.9531,1.9531c0,2.1539 -1.7523,3.9063 -3.9062,3.9063l-21.0938,0c-2.1539,0 -3.9062,-1.7524 -3.9062,-3.9063l0,-34.375c0,-2.15391 1.7523,-3.90625 3.9062,-3.90625l21.0938,0c2.1539,0 3.9062,1.75234 3.9062,3.90625l0,24.6213c0,1.0787 0.8744,1.9531 1.9531,1.9531z"/>
   <path transform="rotate(89.63719940185547 26.329654693603516,24.72718048095703) " id="svg_7" d="m14.423678,36.008171l11.905978,-22.561984l11.905978,22.561984l-23.811956,0z" fill-opacity="null" stroke-opacity="null" stroke-width="null" stroke="null" fill="#0066AE"/>
  </g>
 </g>
</svg>