<svg width="50" height="51" viewBox="0 0 50 51" fill="none" xmlns="http://www.w3.org/2000/svg">
<g opacity="0.75" clip-path="url(#clip0)">
<path d="M46.7387 8.64259V5.50968C46.7387 2.81261 44.5444 0.618469 41.8475 0.618469H28.804C26.6782 0.618469 24.865 1.98136 24.1921 3.87931H15.7607C13.0637 3.87931 10.8695 6.07355 10.8695 8.77052C10.8695 11.4676 13.0638 13.6617 15.7607 13.6617H28.8041C30.9299 13.6617 32.7431 12.2988 33.416 10.4009H36.6786L33.9327 27.792H29.3477V19.64C29.3477 18.2997 27.8127 17.5302 26.739 18.3357L16.3043 26.1616V19.64C16.3043 18.2998 14.7693 17.5301 13.6956 18.3357L0.652148 28.1182C0.241602 28.4261 0 28.9092 0 29.4225V48.9875C0 49.8879 0.72998 50.6179 1.63037 50.6179H48.3689C49.2693 50.6179 49.9993 49.8879 49.9993 48.9875V29.4225C49.9994 29.2071 50.1205 30.0618 46.7387 8.64259ZM46.461 27.7921H37.2338L37.7486 24.5313H45.9462L46.461 27.7921ZM45.4313 21.2704H38.2635L38.7783 18.0096H44.9163L45.4313 21.2704ZM44.4016 14.7487H39.2933L39.9798 10.401H43.715L44.4016 14.7487ZM32.0648 7.14015C31.1645 7.14015 30.4345 7.87013 30.4345 8.77052C30.4345 9.66955 29.703 10.4009 28.8041 10.4009H15.7607C14.8617 10.4009 14.1304 9.66945 14.1304 8.77052C14.1304 7.8715 14.8618 7.14015 15.7607 7.14015H25.5433C26.4437 7.14015 27.1736 6.41017 27.1736 5.50978C27.1736 4.61076 27.9051 3.87941 28.804 3.87941H41.8474C42.7464 3.87941 43.4777 4.61085 43.4777 5.50978V7.14015C41.9326 7.14015 33.8339 7.14015 32.0648 7.14015ZM46.7387 47.3572H3.26084V30.2378L13.0434 22.9009V29.4226C13.0434 30.7628 14.5782 31.5322 15.6521 30.7269L26.0867 22.9009V29.4226C26.0867 30.323 26.8167 31.053 27.7171 31.053H46.7387V47.3572Z" fill="#0066AE"/>
<path d="M41.3039 34.314H34.7822C33.8818 34.314 33.1519 35.0439 33.1519 35.9443V42.466C33.1519 43.3664 33.8818 44.0964 34.7822 44.0964H41.3039C42.2043 44.0964 42.9343 43.3664 42.9343 42.466V35.9443C42.9343 35.0439 42.2043 34.314 41.3039 34.314ZM39.6734 40.8355H36.4126V37.5747H39.6734V40.8355Z" fill="#0066AE"/>
<path d="M28.2605 34.314H21.7388C20.8384 34.314 20.1084 35.0438 20.1084 35.9443V42.466C20.1084 43.3664 20.8384 44.0964 21.7388 44.0964H28.2605C29.1609 44.0964 29.8908 43.3664 29.8908 42.466V35.9443C29.8909 35.0439 29.161 34.314 28.2605 34.314ZM26.6301 40.8355H23.3692V37.5747H26.6301V40.8355Z" fill="#0066AE"/>
<path d="M15.2171 34.314H8.69556C7.79517 34.314 7.06519 35.0439 7.06519 35.9443V42.466C7.06519 43.3664 7.79517 44.0964 8.69556 44.0964H15.2172C16.1176 44.0964 16.8476 43.3664 16.8476 42.466V35.9443C16.8476 35.0438 16.1176 34.314 15.2171 34.314ZM13.5868 40.8355H10.3259V37.5747H13.5868V40.8355Z" fill="#0066AE"/>
</g>
<defs>
<clipPath id="clip0">
<rect width="50" height="50" fill="white" transform="translate(0 0.618286)"/>
</clipPath>
</defs>
</svg>
