<svg width="34" height="35" viewBox="0 0 34 35" fill="none" xmlns="http://www.w3.org/2000/svg">
<path d="M17 0.97583C7.61002 0.97583 0 8.58585 0 17.9758C0 27.3658 7.61002 34.9758 17 34.9758C26.39 34.9758 34 27.3658 34 17.9758C34 8.58585 26.3446 0.97583 17 0.97583ZM17 33.3278C8.5453 33.3278 1.64808 26.4305 1.64808 17.9758C1.64808 9.52113 8.50003 2.62391 17 2.62391C25.5 2.62391 32.3519 9.52113 32.3519 17.9758C32.3519 26.4305 25.4547 33.3278 17 33.3278ZM17.7128 26.208C17.7128 26.6983 17.3131 27.098 16.8229 27.098C16.3325 27.098 15.9329 26.6983 15.9329 26.208C15.9329 25.7177 16.3326 25.3181 16.8229 25.3181C17.309 25.3181 17.7128 25.7177 17.7128 26.208ZM21.4045 14.1029C21.4045 15.6603 20.5146 17.0859 18.8665 18.0624C17.6634 18.7752 17.7087 19.6198 17.7087 19.6651C17.7087 19.6651 17.7087 19.7105 17.7087 19.7558V21.8035C17.7087 22.2485 17.3543 22.6029 16.9093 22.6029C16.4643 22.6029 16.0647 22.2485 16.0647 21.8035V19.8011C16.0194 19.0883 16.3779 17.708 17.9765 16.7315C18.7758 16.2412 19.7111 15.3966 19.7111 14.1523C19.7111 12.6402 18.4668 11.3917 16.9506 11.3917C15.4343 11.3917 14.19 12.636 14.19 14.1523C14.19 14.5973 13.8357 14.9516 13.3907 14.9516C12.9457 14.9516 12.5913 14.5973 12.5913 14.1523C12.5913 11.7049 14.5484 9.74777 16.9958 9.74777C19.4433 9.74777 21.4045 11.6554 21.4045 14.1029Z" fill="#ED2C54"/>
</svg>
