<svg width="34" height="34" viewBox="0 0 34 34" fill="none" xmlns="http://www.w3.org/2000/svg">
<g clip-path="url(#clip0)">
<path d="M32.2597 13.4318L29.8732 13.027C29.6246 12.2244 29.305 11.4502 28.9144 10.7116L30.3207 8.74418C30.9173 7.90609 30.825 6.76258 30.0934 6.03812L27.9768 3.92157C27.5791 3.52383 27.0535 3.30365 26.4924 3.30365C26.0521 3.30365 25.633 3.4386 25.2779 3.69429L23.3034 5.10059C22.5363 4.69575 21.7337 4.36193 20.9027 4.11334L20.505 1.7553C20.3345 0.739639 19.4609 0.000976562 18.4311 0.000976562H15.4409C14.411 0.000976562 13.5374 0.739639 13.367 1.7553L12.955 4.17016C12.1595 4.41875 11.3853 4.74546 10.6467 5.1432L8.69349 3.7369C8.33836 3.48121 7.91221 3.34627 7.47186 3.34627C6.91076 3.34627 6.37807 3.56644 5.98743 3.96419L3.86377 6.08074C3.13932 6.80519 3.03988 7.9487 3.63649 8.7868L5.057 10.7826C4.66636 11.5284 4.35385 12.3025 4.11236 13.1051L1.75432 13.5029C0.738663 13.6733 0 14.5469 0 15.5768V18.567C0 19.5968 0.738663 20.4705 1.75432 20.6409L4.16918 21.0529C4.41777 21.8483 4.74449 22.6225 5.14223 23.3612L3.74303 25.3073C3.14642 26.1454 3.23875 27.2889 3.97031 28.0133L6.08686 30.1299C6.4846 30.5276 7.01019 30.7478 7.57129 30.7478C8.01165 30.7478 8.4307 30.6129 8.78582 30.3572L10.7816 28.9367C11.499 29.3131 12.2519 29.6185 13.026 29.86L13.4238 32.2464C13.5942 33.2621 14.4678 34.0008 15.4977 34.0008H18.495C19.5248 34.0008 20.3985 33.2621 20.5689 32.2464L20.9738 29.86C21.7763 29.6114 22.5505 29.2918 23.2892 28.9011L25.2566 30.3074C25.6117 30.5631 26.0379 30.6981 26.4782 30.6981C27.0393 30.6981 27.5649 30.4779 27.9626 30.0802L30.0792 27.9636C30.8036 27.2392 30.9031 26.0957 30.3065 25.2576L28.9002 23.2831C29.2908 22.5373 29.6175 21.7631 29.859 20.9676L32.2455 20.5699C33.2611 20.3994 33.9998 19.5258 33.9998 18.496V15.5058C34.014 14.4759 33.2753 13.6023 32.2597 13.4318ZM32.0963 18.496C32.0963 18.5883 32.0324 18.6664 31.9401 18.6806L28.957 19.1778C28.5806 19.2417 28.2823 19.5187 28.1899 19.8809C27.92 20.925 27.5081 21.9265 26.9541 22.8569C26.7623 23.1836 26.7765 23.5885 26.9967 23.901L28.751 26.3726C28.8007 26.4437 28.7936 26.5502 28.7297 26.6141L26.6132 28.7307C26.5634 28.7804 26.5137 28.7875 26.4782 28.7875C26.4356 28.7875 26.4001 28.7733 26.3717 28.752L23.9071 26.9977C23.6017 26.7775 23.1897 26.7633 22.863 26.9551C21.9326 27.5091 20.9311 27.921 19.8871 28.1909C19.5177 28.2832 19.2407 28.5886 19.1839 28.958L18.6796 31.941C18.6654 32.0334 18.5873 32.0973 18.495 32.0973H15.5048C15.4125 32.0973 15.3344 32.0334 15.3201 31.941L14.823 28.958C14.759 28.5815 14.482 28.2832 14.1198 28.1909C13.1042 27.9281 12.124 27.5233 11.2078 26.9977C11.0586 26.9124 10.8882 26.8698 10.7248 26.8698C10.533 26.8698 10.3342 26.9266 10.1708 27.0474L7.68493 28.8159C7.64942 28.8372 7.61391 28.8514 7.57839 28.8514C7.54998 28.8514 7.49316 28.8443 7.44345 28.7946L5.32689 26.6781C5.26297 26.6141 5.25587 26.5147 5.30559 26.4366L7.05281 23.9862C7.27299 23.6737 7.28719 23.2617 7.09542 22.935C6.54143 22.0117 6.11527 21.0102 5.84538 19.9662C5.74594 19.6039 5.44764 19.3269 5.07831 19.263L2.07394 18.7516C1.9816 18.7374 1.91768 18.6593 1.91768 18.567V15.5768C1.91768 15.4845 1.9816 15.4064 2.07394 15.3921L5.03569 14.895C5.41212 14.831 5.71753 14.554 5.80987 14.1847C6.07266 13.1406 6.4775 12.1321 7.0244 11.2017C7.21617 10.8749 7.19486 10.4701 6.97468 10.1647L5.20615 7.67881C5.15643 7.60778 5.16354 7.50124 5.22746 7.43732L7.34401 5.32077C7.39373 5.27105 7.44345 5.26395 7.47896 5.26395C7.52157 5.26395 7.55709 5.27815 7.5855 5.29946L10.0359 7.04668C10.3484 7.26686 10.7603 7.28106 11.087 7.0893C12.0104 6.5353 13.0118 6.10915 14.0559 5.83925C14.4181 5.73982 14.6951 5.44151 14.759 5.07218L15.2704 2.06781C15.2846 1.97548 15.3628 1.91156 15.4551 1.91156H18.4453C18.5376 1.91156 18.6157 1.97548 18.6299 2.06781L19.1271 5.02956C19.191 5.406 19.468 5.71141 19.8374 5.80374C20.9098 6.07363 21.9326 6.49268 22.8843 7.05378C23.2111 7.24555 23.6159 7.23135 23.9284 7.01117L26.3788 5.24974C26.4143 5.22843 26.4498 5.21423 26.4853 5.21423C26.5137 5.21423 26.5705 5.22133 26.6203 5.27105L28.7368 7.3876C28.8007 7.45152 28.8078 7.55096 28.7581 7.62909L27.0038 10.0937C26.7836 10.3991 26.7694 10.811 26.9612 11.1377C27.5152 12.0682 27.9271 13.0696 28.197 14.1137C28.2894 14.483 28.5948 14.76 28.9641 14.8168L31.9472 15.3211C32.0395 15.3353 32.1034 15.4135 32.1034 15.5058V18.496H32.0963Z" fill="#ED2C54"/>
<path d="M17.0034 9.65942C12.955 9.65942 9.6665 12.9479 9.6665 16.9963C9.6665 21.0448 12.955 24.3332 17.0034 24.3332C21.0519 24.3332 24.3403 21.0448 24.3403 16.9963C24.3403 12.9479 21.0519 9.65942 17.0034 9.65942ZM17.0034 22.4155C14.0133 22.4155 11.5842 19.9865 11.5842 16.9963C11.5842 14.0062 14.0133 11.5771 17.0034 11.5771C19.9936 11.5771 22.4227 14.0062 22.4227 16.9963C22.4227 19.9865 19.9936 22.4155 17.0034 22.4155Z" fill="#ED2C54"/>
</g>
<defs>
<clipPath id="clip0">
<rect width="34" height="34" fill="white"/>
</clipPath>
</defs>
</svg>
