<svg width="16" height="16" viewBox="0 0 16 16" fill="none" xmlns="http://www.w3.org/2000/svg">
<g clip-path="url(#clip0)">
<path d="M10.6855 1.83086C8.24464 -0.609961 4.27202 -0.609961 1.8312 1.83086C-0.609096 4.27221 -0.609096 8.2443 1.8312 10.6857C4.00481 12.8587 7.39011 13.0916 9.82934 11.3947C9.88067 11.6375 9.99813 11.8693 10.187 12.0582L13.7416 15.6128C14.2596 16.1297 15.0967 16.1297 15.6121 15.6128C16.1296 15.0953 16.1296 14.2583 15.6121 13.7424L12.0575 10.1867C11.8696 9.99939 11.6373 9.88139 11.3945 9.83007C13.0924 7.3903 12.8596 4.00554 10.6855 1.83086ZM9.5632 9.56339C7.74091 11.3857 4.77521 11.3857 2.95345 9.56339C1.13223 7.74111 1.13223 4.77593 2.95345 2.95365C4.77521 1.1319 7.74091 1.1319 9.5632 2.95365C11.3855 4.77593 11.3855 7.74111 9.5632 9.56339Z" fill="#0066AE"/>
</g>
<defs>
<clipPath id="clip0">
<rect width="16" height="16" fill="white"/>
</clipPath>
</defs>
</svg>
