<svg width="50" height="50" viewBox="0 0 50 50" fill="none" xmlns="http://www.w3.org/2000/svg">
<g opacity="0.75">
<path d="M28.9062 35.1932C28.9062 34.1145 28.0318 33.2401 26.9531 33.2401H16.4062C15.3275 33.2401 14.4531 34.1145 14.4531 35.1932C14.4531 36.2719 15.3275 37.1464 16.4062 37.1464H26.9531C28.0318 37.1464 28.9062 36.2719 28.9062 35.1932Z" fill="#0066AE"/>
<path d="M41.4062 34.3869C42.485 34.3869 43.3594 33.5125 43.3594 32.4338V7.8125C43.3594 3.50469 39.8547 0 35.5469 0H14.4531C10.1453 0 6.64062 3.50469 6.64062 7.8125V42.1875C6.64062 46.4953 10.1453 50 14.4531 50H35.5469C39.8547 50 43.3594 46.4953 43.3594 42.1875C43.3594 41.1088 42.485 40.2344 41.4062 40.2344C40.3275 40.2344 39.4531 41.1088 39.4531 42.1875C39.4531 44.3414 37.7008 46.0938 35.5469 46.0938H14.4531C12.2992 46.0938 10.5469 44.3414 10.5469 42.1875V7.8125C10.5469 5.65859 12.2992 3.90625 14.4531 3.90625H35.5469C37.7008 3.90625 39.4531 5.65859 39.4531 7.8125V32.4338C39.4531 33.5125 40.3275 34.3869 41.4062 34.3869Z" fill="#0066AE"/>
<path d="M35.5469 27.576C35.5469 26.4973 34.6725 25.6229 33.5938 25.6229H16.4062C15.3275 25.6229 14.4531 26.4973 14.4531 27.576C14.4531 28.6547 15.3275 29.5291 16.4062 29.5291H33.5938C34.6725 29.5291 35.5469 28.6547 35.5469 27.576Z" fill="#0066AE"/>
<path d="M33.5938 10.3885H16.4062C15.3275 10.3885 14.4531 11.263 14.4531 12.3417C14.4531 13.4204 15.3275 14.2948 16.4062 14.2948H33.5938C34.6725 14.2948 35.5469 13.4204 35.5469 12.3417C35.5469 11.263 34.6725 10.3885 33.5938 10.3885Z" fill="#0066AE"/>
<path d="M33.5938 18.0057H16.4062C15.3275 18.0057 14.4531 18.8801 14.4531 19.9588C14.4531 21.0375 15.3275 21.9119 16.4062 21.9119H33.5938C34.6725 21.9119 35.5469 21.0375 35.5469 19.9588C35.5469 18.8801 34.6725 18.0057 33.5938 18.0057Z" fill="#0066AE"/>
</g>
</svg>
